<?xml version="1.0" standalone="no"?>
<!DOCTYPE svg PUBLIC "-//W3C//DTD SVG 1.1//EN" "http://www.w3.org/Graphics/SVG/1.1/DTD/svg11.dtd">
<svg xmlns="http://www.w3.org/2000/svg">
<metadata>Generated by Fontastic.me</metadata>
<defs>
<font id="l2l" horiz-adv-x="512">
<font-face font-family="l2l" units-per-em="512" ascent="480" descent="-32"/>
<missing-glyph horiz-adv-x="512" />

<glyph glyph-name="alterations" unicode="&#97;" d="M492 51l-204 205 153 154c7-4 16-3 22 1l28 18c3 2 6 4 8 6 17 18 16 46-1 63-17 17-45 18-63 1-2-2-4-5-6-8l-18-28c-4-6-5-15-1-22l-154-153-154 153c4 7 3 16-1 22l-18 28c-2 3-4 6-6 8-18 17-46 16-63-1-17-17-18-45-1-63 2-2 5-4 8-6l28-18c6-4 15-5 22-1l153-154-204-205c-12-11-19-27-20-43 0-2 1-4 2-6 2-1 4-2 6-2 16 1 32 8 43 20l226 225 205-204c6-7 11-15 14-25-10 3-18 8-25 14l-188 189c-3 3-8 3-11 0-3-3-3-8 0-11l189-188c11-12 27-19 43-20 2 0 4 1 6 2 1 2 2 4 2 6-1 16-8 32-20 43z m-68 404l18 28c1 2 2 4 4 5 12 12 30 11 42 0 11-12 12-30 0-42-1-2-3-3-5-4l-28-18c-3-2-7-2-9 1l-21 21c-3 2-3 6-1 9z m-367-31l-28 18c-11 6-16 19-13 31 2 12 11 21 23 23 12 3 25-2 31-13l18-28c2-3 2-7-1-9l-21-21c-2-3-6-3-9-1z m25-5l11 11 152-153-10-10z m-41-389c-7-6-15-11-25-14 3 10 8 18 14 25l389 389 11-11z"/>
<glyph glyph-name="trousers" unicode="&#98;" d="M389 449l0 56-273 0 0-56-25-442 120 0 40 289 2 0 41-289 119 0z m-11-88l-13 0c-14 0-24 10-24 24l0 56 32 0z m-246 128l241 0 0-32-241 0z m32-48l0-56c0-14-11-24-24-24l-13 0 5 80z m-56-418l1 17 91 0-3-17z m159 289l-30 0-35-256-92 0 16 289 14 0c22 0 40 18 40 40l0 56 145 0 0-56c0-22 18-40 40-40l14 0 16-289-92 0z m41-289l-3 17 91 0 1-17z m-48 370l16 0 0-16-16 0z m0 32l16 0 0-16-16 0z m-32-32l16 0 0-16-16 0z m0 32l16 0 0-16-16 0z"/>
<glyph glyph-name="suit" unicode="&#99;" d="M415 452l4 17c1 3-1 6-4 6l-85 30c-1 1-3 0-4 0-21-12-44-18-68-18-23 0-46 6-67 18-1 0-3 0-4 0l-6-2-79-28c-3-1-5-4-4-6l4-17c2-10 3-20 3-30 0-34-12-66-35-92-1-1-1-2-1-3l0-275c0-2 1-4 4-5l120-40c1 0 3 0 5 1l60 37 59-37c1-1 3-1 5-1l122 40c2 1 4 3 4 5l0 275c0 1 0 2-1 3-30 34-41 79-32 122z m-157 24c24 0 47 5 68 15l-68-157-67 157c21-10 44-15 67-15z m178-419l-115-38-57 37 0 70 9 0c2 0 5 1 6 3 2 2 2 5 0 7-1 2-4 3-6 2l-9 0 0 47 9 0c2-1 5 0 6 2 2 2 2 5 0 7-1 2-4 3-6 2l-9 0 0 37 9 0c2 0 5 1 6 3 2 2 2 4 0 6-1 2-4 3-6 3l-9 0 0 27c1 2 0 5-2 6-2 2-5 2-7 0-2-1-3-4-2-6l0-27-5 0 0 1c0 3-1 5-3 6-2 2-5 2-7 0-2-1-3-3-2-6l0-14c1-3 3-5 6-5 3 0 5 2 6 5l0 1 5 0 0-37-5 0 0 2c-1 2-3 4-6 4-3 0-5-2-6-4l0-15c-1-2 0-5 2-6 2-1 5-1 7 0 2 1 3 4 3 6l0 2 5 0 0-47-5 0 0 1c-1 3-3 5-6 5-3 0-5-2-6-5l0-14c1-3 3-5 6-5 3 0 5 2 6 5l0 1 5 0 0-70-59-37-114 38 0 267c24 28 37 62 37 98 0 11-2 22-4 32l-3 12 69 24 74-172 0-20c0-2 3-4 5-4 3 0 6 2 6 4l0 20 74 172 68-24-2-12c-10-46 2-94 32-130z m-38 184l-74 0c-4 0-6-2-6-6l0-61c0-2 1-4 2-5l38-23c2-1 4-1 6 0l37 23c2 1 3 3 3 5l0 61c0 4-3 6-6 6z m-6-64l-31-19-31 19 0 32 62 0z m0 43l-62 0 0 9 62 0z m-199 21l-75 0c-3 0-6-2-6-6l0-31c0-3 1-5 3-7 2-1 5-1 7 0 2 2 3 4 2 7l0 5 63 0 0-32-31-19-32 19 0 7c0 3-3 4-6 4-2 0-5-1-5-4l0-10c0-2 1-4 2-5l38-23c2-1 4-1 6 0l37 23c2 1 3 3 3 5l0 61c0 4-3 6-6 6z m-6-21l-63 0 0 9 63 0z m196 145c1-2 3-4 5-4 2-1 4 0 5 2 2 1 2 3 2 5-2 5-3 9-4 14-1 2-2 4-4 4-2 1-4 1-6-1-1-1-2-3-2-5 1-5 3-10 4-15z m9-7c-2-1-3-2-3-3-1-2-1-3 0-5 6-13 13-26 22-37l0-24c1-3 3-4 6-4 3 0 5 1 6 4l0 26c0 1-1 2-2 4-8 11-16 23-21 36-1 1-2 2-4 3-1 1-3 1-4 0z"/>
<glyph glyph-name="shoe-repair" unicode="&#100;" d="M495 121l0 21c0 33-27 60-60 60l-68 0c-15-1-30 5-40 15-23 21-63 62-80 107-20 53-19 122-17 149 0 5-2 10-6 13-4 4-9 5-14 4-19-3-61-15-65-68l-101-12c-10-2-18-7-24-14-5-8-7-17-6-27 7-34 17-95 12-123-3-12-6-23-9-34-7-28-14-54-9-86l-7-14c-1-2-1-3-1-4l0-51c0-3 1-5 3-6 2-3 29-27 132-21 10 1 19 10 19 20 0 4 3 8 7 9 18 2 36 2 53 0 5 0 8-4 8-8l0-3c0-9 6-17 16-19 26-5 54-8 81-8 15 0 31 1 48 3 0 0 0 0 0 0 0 0 1 0 1 0 39 4 78 12 115 25 17 6 29 22 29 40l0 3c0 12-6 23-17 29z m-328 242l-5 52c0 44 32 55 51 59-2-29-3-100 18-156 18-48 60-92 84-113 11-11 26-18 41-20-20-15-60-36-103-3-64 47-187 45-214 44 1 6 2 11 4 17 2 20 2 41-1 62l89 12c22 3 39 23 36 46z m-133 23c3 4 7 6 12 7l100 12 4-44c2-13-8-26-22-27l-88-12c-3 17-6 35-9 51-1 4 0 9 3 13z m0-178l0 1c0 0 1 0 1 0 1 0 142 8 207-41 17-13 37-20 58-21 41 0 73 30 80 38l55 0c24-1 43-20 43-43l0-21c-32-21-115-30-162-30-15 0-30 3-44 8-22 7-44 10-66 10-9 0-19 0-28-1-57-7-134 17-153 23-5 27 2 50 9 77z m461-119c0-11-7-21-17-24-1 3-3 6-6 7-3 1-6 0-9-2-1-2-2-4-2-6l0-4c-6-2-12-4-17-5l0 0c0 5-4 9-9 9-5 0-8-4-8-9l0-4c-6-2-12-3-17-4-1 5-5 8-9 8-4 0-8-4-8-8l0-3c-6-1-12-2-18-2-1 4-5 7-9 6-4 0-7-4-7-8-6 0-12-1-18-1l0 1c0 4-3 8-8 8-5 0-9-4-9-8l0-1c-6-1-11 0-17 0l0 1c0 4-4 8-8 8-5 0-9-4-9-8l0-1c-6 1-12 1-17 2-1 4-4 7-8 7-4 0-7-2-8-5-7 1-12 2-16 3-1 0-2 1-2 3l0 2c0 13-10 24-23 25-19 2-38 2-57 0-13-2-23-13-22-26-1-1-2-3-3-3-5 0-10 0-15 0l0 1c0 5-3 8-8 8-5 0-8-3-9-8l0-2c-6 0-11 0-17 1l0 1c0 5-4 9-8 9-5 0-9-4-9-9l0 0c-6 1-12 1-17 2l0 7c0 4-4 8-8 8-5 0-9-4-9-8l0-3c-6 2-12 4-17 7l0 45 4 8c24-8 100-31 159-23 29 4 59 1 87-9 16-5 32-8 49-8 32 0 129 6 171 32 5-3 8-8 8-14l0-3z m-307 262c1-1 1-1 1-2l1-1c1-1 2-1 3-2 1 0 2 0 3 0 1 0 1 0 2 0 0 0 1 0 1 0 1 0 2 1 2 1l1 1 1 1c1 1 1 1 1 2 0 0 0 1 1 1 0 1 0 1 0 2 0 1 0 2-1 3 0 1-1 2-2 3 0 0-1 1-1 1 0 0-1 1-2 1 0 0-1 0-1 0-2 1-3 1-5 0-2-1-4-3-5-5 0-1 0-2 0-3 0-1 0-1 0-2 0 0 0-1 0-1z m11-25c-2-2-3-4-3-6 0-1 1-2 1-3 0-1 1-2 2-3 1-2 4-3 6-3 1 0 2 1 3 1 1 0 2 1 3 2 1 2 2 4 2 6 0 1 0 1 0 2 0 0 0 1 0 1-1 1-1 1-1 2l-1 1c-1 1-2 1-3 2-3 1-7 0-9-2z m17-46c3-3 7-4 11-1 3 2 4 6 3 10-1 1-1 2-2 3-4 3-9 3-12 0-2-2-3-4-3-6 0-2 1-5 3-6z m31-37c1 0 2 0 2 0 1 0 1 1 2 1 0 0 1 0 1 1 1 0 1 0 2 1 0 0 1 1 1 2 1 2 1 5 0 7 0 1-1 2-1 3-4 3-9 3-13 0 0-1-1-2-1-3-2-3-1-6 0-8 2-2 5-4 7-4z"/>
<glyph glyph-name="shirts" unicode="&#101;" d="M253 274c-4 0-7-3-7-7 0-4 3-7 7-7 4 0 8 3 8 7 0 4-4 7-8 7z m186 154l-52 26 0 0-30 49c-2 2-4 3-7 3l-190 0c-2 0-5-1-6-3l-33-50c-1 0-52-25-53-25-11-5-18-17-18-30l0-283c-1-3 1-6 3-7 2-2 5-2 8 0 2 1 3 4 3 7l0 283c0 7 4 14 11 17l46 22 58-56c4-5 11-7 17-7 8 0 14 4 21 8l0-149c0-8 6-15 15-15l43 0c8 0 15 7 15 15l0 149c6-4 13-8 20-8 7 0 13 2 18 7l19 19c2 2 2 7 0 10-3 2-8 3-11 0l-19-19c-3-3-8-4-12-1l-40 24 84 74 25-41-17-17c-2-2-3-5-2-7 0-3 2-5 5-5 2-1 5 0 7 1l19 19 46-23c7-3 11-9 11-16l0-361c-1-10-9-18-19-18l-341 0c-10 0-19 8-19 18l0 47c0 3-1 6-3 7-3 2-6 2-8 0-2-1-4-4-3-7l0-47c0-18 15-33 33-33l341 0c18 0 33 15 33 33l0 361c0 12-7 24-18 29z m-237-38c-4-3-10-2-13 1l-55 55 27 42 80-73z m73 1l0-158c0 0 0-1 0-1l-43 0c0 0-1 1-1 1l0 158 22 14z m-22 32l-74 69 152 0z m138-191c15 0 27 12 27 26l0 69c0 4-3 7-7 7l-89 0c-2 0-4 0-6-2-1-1-2-3-2-5l0-69c0-14 12-26 27-26z m-62 26l0 62 75 0 0-62c0-6-6-12-13-12l-50 0c-6 0-12 6-12 12z m-83 97c0-3 2-5 5-7 2-1 5 0 8 2 2 2 2 5 1 8-1 3-4 5-7 5-4 0-7-4-7-8z m7-36c-4 0-7-4-7-8 0-4 3-7 7-7 4 0 8 3 8 7 0 4-4 8-8 8z"/>
<glyph glyph-name="outdoor" unicode="&#102;" d="M240 30c3 0 6 3 6 6l0 10c0 4-3 6-6 6-3 0-6-2-6-6l0-10c0-3 3-6 6-6z m-27 0c3 0 6 3 6 6l0 10c0 4-3 6-6 6-4 0-6-2-6-6l0-10c0-3 2-6 6-6z m-28 0c4 0 7 3 7 6l0 10c0 4-3 6-7 6-3 0-6-2-6-6l0-10c0-3 3-6 6-6z m-27 22c-3 0-6-2-6-6l0-9c0-4 3-6 6-6 4 0 6 2 6 6l0 9c0 4-2 6-6 6z m-27 0c-3 0-6-2-6-6l0-9c0-4 3-6 6-6 3 0 6 2 6 6l0 9c0 4-3 6-6 6z m136-22c4 0 6 3 6 6l0 10c0 4-2 6-6 6-3 0-6-2-6-6l0-10c0-3 3-6 6-6z m28 0c3 0 6 3 6 6l0 10c0 4-3 6-6 6-4 0-6-2-6-6l0-10c0-3 2-6 6-6z m27 0c3 0 6 3 6 6l0 10c0 4-3 6-6 6-4 0-6-2-6-6l0-10c0-3 2-6 6-6z m27 0c4 0 6 3 6 6l0 10c0 4-2 6-6 6-3 0-6-2-6-6l0-10c0-3 3-6 6-6z m27 0c4 0 6 3 6 6l0 10c0 4-2 6-6 6-3 0-6-2-6-6l0-10c0-3 3-6 6-6z m123 32c2 1 3 4 3 6l-26 200c-2 18-6 36-10 53-3 12-6 23-9 35-7 21-20 41-37 57l0 2c0 7-4 14-10 17l-10 4c-23 10-47 17-72 23l0 32c0 3-3 6-6 6l-137 0c-3 0-6-3-6-6l0-33c-24-5-48-12-72-23l-9-4c-7-3-11-9-11-16l0-2c-17-16-29-36-36-58-4-11-7-22-10-34-4-17-7-35-10-53l-26-200c0-3 2-6 5-7l-3-33c0-1 0-3 2-4 1-1 2-2 4-2l59-3 1 0c2 0 5 2 6 5l6 33 0 0c3 0 5 2 6 4l2 5c2-2 4-4 7-5l0-45c0-3 3-6 6-6l295 0c4 0 6 3 6 6l0 45c3 1 6 3 8 5l1-5c1-2 3-4 6-4l2 0 6-33c1-3 4-5 7-5l0 0 59 3c2 0 3 1 4 2 2 1 2 3 2 4z m-431-31l-48 3 2 26 50-3z m19 58l-6-20-63 4 8 59 61-4z m0 52l0-1-60 4 11 78 49-3 0-50c0-5 2-10 6-14-4-4-6-9-6-14z m0 91l-48 3 4 32c2 15 5 31 9 46l35-2 0-53c0-5 2-10 6-14-4-3-6-8-6-12z m0 92l-32 1c2 9 4 18 7 27 5 16 14 31 25 43l0-48c0-5 2-10 6-14-3-2-5-6-6-9z m217 161l-50-40-51 40z m12-6l0-36-56-41 0 33z m-125 0l57-44 0-33-57 41z m-92-64c0 2 1 4 4 5l9 4c22 10 44 17 67 22l0-6c0-2 1-4 3-5l66-48 0-47-141 0c-2 0-4 0-6 2-1 1-2 3-2 5z m0-95c0 2 1 4 2 5 2 2 4 2 6 2l141 0 0-77-141 0c-2 0-4 1-6 3-1 1-2 3-2 5z m0-90c0 2 1 4 2 6 2 1 4 2 6 2l141 0 0-77-141 0c-2 0-4 1-6 2-1 2-2 4-2 6z m296-208l-283 0 0 38 37 0c3 0 6 2 6 6 0 3-3 6-6 6l-43 0c-4 0-7 3-7 8l0 61c0 2 1 4 2 6 2 1 4 2 6 2l141 0 0-77-69 0c-4 0-6-3-6-6 0-3 2-6 6-6l216 0z m13 58c0-4-3-8-7-8l-141 0 0 77 140 0c5 0 8-4 8-8z m0 89c0-4-3-8-8-8l-140 0 0 77 140 0c5 0 8-3 8-8z m0 89c0-4-3-8-8-8l-140 0 0 77 140 0c5 0 8-3 8-7z m0 89c0-4-3-7-8-7l-140 0 0 47 66 48c1 1 2 3 2 5l0 6c23-5 45-12 67-22l10-4c2-1 3-3 3-5z m12 0l0 48c12-12 20-27 25-43 3-9 5-18 8-26l-33-2c-1 3-3 7-5 10 3 3 5 8 5 13z m0-89l0 53 35 3c4-16 7-32 9-47l4-32-48-3c0 4-2 9-5 12 3 4 5 9 5 14z m-5-103c3 4 5 9 5 14l0 51 50 3 10-79-60-4 0 1c0 5-2 10-5 14z m11-86l-6 20 0 39 61 4 8-59z m15-38l-4 27 50 3 2-27z"/>
<glyph glyph-name="laundry" unicode="&#103;" d="M381 279c-17 23-34 46-39 61 15 5 24 21 19 37-3 12-15 20-28 20l0 0c2 5 5 10 8 15 11 24 14 40 7 51-8 13-24 12-38 7 0 8-2 16-7 22-4 5-12 12-27 12-19 0-31-18-37-31-9 6-19 9-29 11-12 2-29 1-41-8-7-6-11-15-11-25 0-15 10-39 17-54-16-2-28-17-25-32 1-10 7-19 17-23-5-11-17-26-30-42-17-22-38-49-55-80-20-36-30-71-30-106 0-59 48-106 107-106 17 0 33 4 48 12 31-16 67-16 97 0 53-27 117-6 144 46 7 15 11 32 11 49 0 54-43 115-78 164z m-49 173c0 0 3-6-9-31-4-10-9-19-13-24l-20 0 16 51c9 5 23 9 26 4z m-150 9c5 4 15 6 25 4 9-2 17-5 24-10l-2-7c-2-5 0-10 5-12 1 0 3-1 4-1 4 0 7 3 9 6l6 15c0 0 0 0 0 0l0 1c2 7 11 28 24 28 8 0 10-4 11-5 5-6 3-19 2-23l-19-60-26 0 0 9c0 5-4 10-9 10-6 1-10-4-11-9 0 0 0 0 0-1l0-9-28 0c-7 14-19 41-19 54-1 4 1 7 4 10z m-4-83l156 0c5 0 9-5 9-10-1-5-5-9-9-9l-156 0c-5 0-9 5-9 10 0 5 4 9 9 9z m175-351c-10 0-20 2-29 6 10 8 18 17 24 28 2 5 1 11-4 13-5 3-10 1-13-3-7-13-19-24-32-32-27-16-60-16-87 0l0 1c-13 7-24 18-32 31-3 5-8 6-13 3-4-2-6-8-3-12 6-11 14-21 24-29-45-16-95 8-111 53-3 9-5 19-5 29 0 71 47 130 81 173 16 21 29 38 34 52l22 0-17-52c-2-5 0-10 5-13 5-2 11 1 13 6 0 0 0 0 0 1l19 58 51 0c2-12 7-34 16-50 3-4 8-6 13-3 5 3 6 8 4 13-7 12-11 29-14 40l23 0c5-19 22-43 43-72 34-47 75-105 75-153 0-48-39-88-87-88z m-161 230c-1 0-2 1-3 1-6 0-10-5-10-10 0-4 3-8 7-9 1-1 2-1 3-1 5 0 9 4 9 10 0 4-2 8-6 9z"/>
<glyph glyph-name="knitewear" unicode="&#104;" d="M228 320l11 0c3 0 6 3 6 6 0 4-3 6-6 6l-11 0c-3 0-6-2-6-6 0-3 3-6 6-6z m0-40l11 0c3 0 6 3 6 6 0 4-3 6-6 6l-11 0c-3 0-6-2-6-6 0-3 3-6 6-6z m0-40l11 0c3 0 6 3 6 6 0 4-3 6-6 6l-11 0c-3 0-6-2-6-6 0-3 3-6 6-6z m0-40l11 0c3 0 6 3 6 6 0 4-3 6-6 6l-11 0c-3 0-6-2-6-6 0-3 3-6 6-6z m0-40l11 0c3 0 6 3 6 6 0 4-3 6-6 6l-11 0c-3 0-6-2-6-6 0-3 3-6 6-6z m0-40l11 0c3 0 6 3 6 6 0 4-3 6-6 6l-11 0c-3 0-6-2-6-6 0-3 3-6 6-6z m257 160c0 1 0 1 0 2l-63 151c0 1 0 1 0 1-1 2-2 3-4 4l0 0-82 23c-2 0-5 0-6-2l0-1-1 1c0-1 0-1 0-1-9-9-42-15-80-14-33 0-59 6-66 14l0 1-1 0 0 0c-1 2-4 2-6 2l-82-23 0 0c-2-1-4-3-4-5l-62-151c-1-1-1-1-1-2l-21-183c-1-3 1-5 4-6l-3-28c0-4 3-7 6-7l0 0 61-4 0 0c3 0 6 2 6 5l5 29 1 0 0 0c3 0 5 2 6 5l25 86 11-120c0-4 3-6 6-6l244 0c3 0 6 2 6 6l11 120 25-86c1-3 3-5 6-5l0 0 1 0 5-29c0-3 3-5 6-5l0 0 61 4c2 0 3 1 4 2 1 1 2 3 2 4 0 0 0 0 0 1l-3 28c3 1 5 3 4 6z m-416-216l-49 4 2 22 51-3z m181-1l-111 0-2 28 113 0z m0 40l-114 0-18 192 4 21c0 3-2 7-5 7-3 1-6-1-7-5l-4-22c0 0 0-1 0-2l8-84-32-111-64 3 21 176 57 138 22-55-4-20c-1-3 2-6 5-7 3 0 6 2 7 5 0 0 0 0 0 0l4 22c0 1 0 2-1 3l-25 64 72 20 74-83z m-48 334c18-4 38-5 47-5 2 0 4 0 7 0 18 0 38 1 54 5l-54-61z m171-374l-111 0 0 28 113 0z m3 40l-114 0 0 262 74 83 72-20-25-64c-1-1-1-2-1-3l12-66z m67-39l-4 23 51 3 2-22z m-13 35l-32 111 8 84c0 1 0 2 0 2l-12 65 22 55 57-138 21-176z m-336 261c-1 1-3 1-4 0-2-1-3-2-3-3l-20-48c-1-3 0-6 3-7 3-2 7 0 8 3l20 47c1 3 0 7-4 8z m-25-63c-2 1-4 1-5 0-1 0-3-1-3-3l-6-15c-1-3 0-6 3-7 3-1 6 0 8 3l0 0 6 15c1 3 0 6-3 7z"/>
<glyph glyph-name="iron" unicode="&#105;" d="M498 343c0 27-22 49-49 49l-77 0c-25 1-44 21-44 46 0 25 19 45 44 46l119 0c3 0 5 1 7 3 1 3 1 5 0 8-2 2-4 3-7 3l-119 0c-33 0-60-27-60-60 0-33 27-60 60-60l77 0c19 0 35-16 35-35 0-8-3-16-8-22l-21-26c-8 3-16 1-22-5l-9-8c-19 0-41-4-59-7-4-1-7-5-6-9 1-3 4-6 8-5 18 3 37 5 55 6 7 1 14-4 16-11 2-6 45-151 46-157 0-1 0-2-1-3 0 0-1-1-2-1-21 0-39-15-46-34l-303 0c-4 0-7-3-7-7 0-4 3-7 7-7l310 0c5 0 9-5 9-10 0-5-4-9-9-9l-413 0c3 11 13 19 25 19l50 0c4 0 7 3 7 7 0 4-3 7-7 7l-43 0c59 105 163 167 279 194 4 1 6 5 5 9-1 3-4 6-8 5-68-16-136-45-191-88l-9 10c-9 8-22 8-30 0-9-8-9-22 0-30l7-8c-28-27-51-59-70-93-18-5-30-21-30-39 0-4 3-7 7-7l421 0c12 0 21 8 23 19 2 11-4 22-15 26 5 13 17 22 31 22 5 0 10 3 13 7 4 4 5 9 4 14 0 0 0 0 0 1l-44 148 9 9c7 7 8 18 3 26l21 26c7 8 11 20 11 31z m-381-162c1 1 3 2 5 2 2 0 3-1 5-2l8-9c-3-3-7-6-10-9l-8 8c-2 1-2 3-2 5 0 2 0 4 2 5z m336 89l-4-4c-2 5-6 8-10 11l4 3c1 2 3 2 5 2 2 0 3 0 5-2 1-1 2-3 2-5 0-2-1-3-2-5z m-204-90c-17-9-25-28-20-46 4-18 21-31 40-31 0 0 143 10 143 10 6 0 12 3 16 9 4 5 5 12 4 18l-19 76c-3 12-14 19-26 16-48-10-95-27-138-52z m101-57l-64-4 0 16c0 1 0 1 1 1l63 0c0 0 0 0 0-1z m40 95c0 1 1 1 2 1 3 0 6-3 7-6l19-76c0-3 0-5-1-7-2-2-4-3-6-3l-47-3 0 11c0 8-6 15-14 15l-63 0c-8 0-15-7-15-15l0-17-2 0c-7-1-14 2-20 7-5 5-8 12-8 20 0 9 5 18 13 23 43 23 88 40 135 50z"/>
<glyph glyph-name="home" unicode="&#106;" d="M503 222l-8 0 0 25c0 17-10 33-26 40l0 131c0 4-2 7-5 8 4 5 5 11 5 18 0 19-15 34-34 34-19 0-34-15-34-34 0-6 2-12 5-17l-300 0c3 5 5 11 5 17 0 19-15 34-34 34-19 0-34-15-34-34 0-7 1-13 5-18-3-1-5-4-5-8l0-131c-16-7-26-23-26-40l0-25-8 0c-5 0-9-4-9-9l0-119c0-5 4-9 9-9l8 0 0-42c0-5 4-9 9-9l34 0c4 0 8 4 8 9l0 42 376 0 0-42c0-5 4-9 8-9l34 0c5 0 9 4 9 9l0 42 8 0c5 0 9 4 9 9l0 119c0 5-4 9-9 9z m-68 239c10 0 17-8 17-17 0-10-7-17-17-17-9 0-17 7-17 17 0 9 8 17 17 17z m-358 0c9 0 17-8 17-17 0-10-8-17-17-17-10 0-17 7-17 17 0 9 7 17 17 17z m-17-51l392 0 0-120-34 0c6 7 9 16 9 26l0 17c0 23-19 42-43 42l-68 0c-24 0-43-19-43-42l0-17c0-10 3-19 9-26l-52 0c6 7 9 16 9 26l0 17c0 23-19 42-43 42l-68 0c-24 0-43-19-43-42l0-17c0-10 3-19 9-26l-34 0z m350-77l0-17c0-14-12-26-26-26l-68 0c-14 0-26 12-26 26l0 17c0 14 12 25 26 25l68 0c14 0 26-11 26-25z m-188 0l0-17c0-14-12-26-26-26l-68 0c-14 0-26 12-26 26l0 17c0 14 12 25 26 25l68 0c14 0 26-11 26-25z m-188-86c0 15 12 26 26 26l392 0c14 0 26-11 26-26l0-25-444 0z m17-196l-17 0 0 34 17 0z m427 0l-17 0 0 34 17 0z m17 51l-478 0 0 103 478 0z m-418 35l-34 0c-5 0-9-4-9-9 0-5 4-9 9-9l34 0c5 0 8 4 8 9 0 5-3 9-8 9z m392 0l-358 0c-5 0-9-4-9-9 0-5 4-9 9-9l358 0c5 0 9 4 9 9 0 5-4 9-9 9z"/>
<glyph glyph-name="dress" unicode="&#107;" d="M473 109c-74 75-135 181-143 196l0 32c0 11 2 21 4 31 1 3 0 6-2 8-2 1-5 2-8 1-2-1-4-3-4-6-2-11-4-19-4-26l-125 0c-2 25-14 69-16 80 2 6 6 11 12 13 19 7 52-7 63-14 2-1 5-1 7 0 11 7 43 21 62 14 6-2 11-7 13-13-1-4-4-13-6-25-1-2 0-5 2-7 2-2 5-3 7-2 3 1 5 3 5 6 4 15 7 27 7 27 0 1 0 3 0 4-3 9-9 16-16 20-1 11-5 35-25 53-1 1-4 2-6 1-2 0-4-1-5-3 0-1-14-25-16-49-2-1-3-1-4-2-7-2-15-5-22-9-7 4-14 7-22 9-1 1-2 1-3 2-2 24-16 48-17 49-1 2-3 3-5 3-2 1-4 0-6-1-20-18-24-42-24-53-8-4-13-11-16-20-1-1-1-3 0-4 0-1 16-64 16-87l0-32c-7-15-68-121-143-196-2-1-2-3-2-5 0-2 1-4 2-6 16-11 33-22 50-31-1-1-2-3-2-5 1-2 2-4 3-5 12-8 25-15 38-21 4-2 8 0 9 4 2 3 1 7-3 9-10 5-19 10-29 15 61 79 107 187 108 189 2 3 0 8-4 9-4 2-8 0-10-4 0-1-44-102-101-179-15 8-29 16-43 26 71 73 128 170 139 190l130 0c12-20 69-117 139-190-14-10-28-18-43-26-56 77-101 178-101 179-2 4-6 6-9 4-4-2-6-6-4-9 0-2 47-110 107-189-46-27-100-42-154-43-33 0-66 6-98 17-4 2-8 0-9-4-2-4 0-8 4-10 33-12 68-18 103-18 98 0 166 48 169 51 2 1 3 3 3 5 0 2 0 4-2 5 18 9 34 19 50 31 2 2 3 4 3 6 0 2-1 4-3 5z m-170 374c7-9 11-19 12-29-7 1-14 1-21-1 2 11 5 20 9 30z m-100 0c5-10 8-19 10-30-7 2-15 2-22 1 2 10 6 20 12 29z m112-173l-124 0 0 20 124 0z"/>
<glyph glyph-name="discount" unicode="&#108;" d="M200 332c-5 0-10-2-13-6-4-5-6-13-6-26 0-11 2-18 6-23 3-4 8-7 13-7 5 0 10 3 13 7 4 5 5 13 5 25 0 11-1 19-5 24-3 4-8 6-13 6z m112-90c-5 0-10-3-13-7-4-5-6-13-6-25 0-11 2-19 6-24 3-4 8-7 13-7 5 0 10 3 13 7 4 5 6 13 6 25 0 11-2 19-6 24-3 4-8 7-13 7z m200 36c0 0-69 65-139 64-22 32-8 146-8 146 0 0-34 9-120-92-40-3-136 70-136 70 0 0-14-100 19-143-17-36-128-89-128-89 0 0 61-61 139-64 22-32 8-146 8-146 0 0 99 29 120 92 40 3 136-71 136-71 0 0 15 93-19 144 17 36 128 89 128 89z m-339-11c-7 8-10 20-10 36 0 12 3 22 9 31 6 9 15 13 27 13 11 0 20-4 27-11 7-8 11-20 11-35 0-14-4-26-11-34-7-7-16-11-26-11-11 0-20 4-27 11z m45-102l-18 0 95 182 17 0z m120 12c-7-8-16-12-26-12-11 0-20 4-27 11-7 8-10 20-10 36 0 12 3 23 9 31 6 9 16 13 27 13 11 0 20-4 27-11 8-8 11-20 11-35 0-14-4-26-11-33z"/>
<glyph glyph-name="setting" unicode="&#109;" d="M440 255c-1 27-7 53-18 77l54 55-42 55-65-42c-21 17-44 28-70 35l-9 77-68 0-9-78c-28-6-52-19-73-37l-66 40-42-55 56-56c-10-22-15-47-15-74 0 0 0-1 0-1l-74-29 16-67 79 10c12-23 29-43 48-59l-25-77 62-29 42 69c12-3 23-4 35-4 14 0 27 2 40 4l43-67 60 30-25 76c19 17 35 38 46 61l78-8 15 67z m-184-144c-78 0-142 65-142 145 0 81 64 146 142 146 79 0 143-65 143-146 0-80-64-145-143-145z m-111 148c0 61 50 111 111 111 61 0 111-50 111-111 0 0-32 23-63 23-31 0-19-41-48-41-29 0-26 53-58 53-32 0-53-35-53-35z"/>
<glyph glyph-name="laundry-1" unicode="&#110;" d="M479 35c0 0-41 38-30 72 0 0 18 83-11 121-12 16-27 37-30 74-6 67-77 103-164 103l-1-2c18-6 79-31 85-121 0 0-18 47-36 69-20 24-52 50-52 50-2-3-6-5-10-8 16-12 46-42 38-91 0 0-6 29-17 50-13 24-27 39-27 39-12-4-29-3-44 12 0 0-129 2-103-148 2-11 15-26-1-46-12-15-33-33-24-75 0 0 16-47 7-68 0 0-43-31-23-47 0 0 9-11 44 5 0 0 45 22 60 0 0 0 34-34 54-8 0 0 22 26 43 8 0 0 108-55 179 0 5 4 10 14 24 0 0 0 54-36 39 11z m-354 280c-7-19-9-54-6-72 4-29-1-34-1-34-11-11-17-11-17-11-17-17-23-9-23-9 1 7 19 23 19 23 9 9 2 30 2 30-11 34-10 60-10 60 0 83 80 85 80 85 3-12 33-14 33-14-54-9-69-38-77-58z m57 106c14-11 19-11 28-10-8 26-4 29 0 50 0 0 0-10 1-19 1-8 6-32 6-32 2 1 5 1 6 2l1 0c2 1 3 2 5 3-1 21-1 49 17 77 0 0-9-38-10-50-2-11-3-25-3-25 3 2 4 3 4 3 4 62 53 80 53 80-19-16-40 1-46 8-13 13-53-9-53-9-34-15-62 3-62 3 40-33 53-81 53-81z"/>
<glyph glyph-name="laundry-2" unicode="&#111;" d="M256 341c-126 0-229-91-229-205 0-113 103-136 229-136 126 0 229 23 229 136 0 114-103 205-229 205z m15 22l56 114c0 0-10-19-27-5-18 16-22 61-88 28-16-8-55-42-96-15l86-128c32 13 69 6 69 6z m127 34c-7 31-79-35-79-35 87 20 79 35 79 35z m-79-43c86-23 87-7 87-7 13 30-87 7-87 7z"/>
<glyph glyph-name="outdoor-1" unicode="&#112;" d="M461 356c-4 50 3 99-67 123-16 5-72 22-72 22l34-62c0 0-82-234-100-258-16 22-103 258-103 258l37 63c0 0-56-17-72-23-70-23-63-73-67-123-3-45-12-240-12-240 27-28 62-4 62-4-1 77 22 199 22 199-1-25 19-81 20-129 1-40-26-82-32-114-8-49 109-67 109-67l36 42 36-42c0 0 117 18 109 66-6 32-33 74-32 115 1 48 21 104 20 129 0 0 23-123 22-200 0 0 35-23 62 5 0 0-9 194-12 240z m-205-203c9 0 16-7 16-16 0-9-7-16-16-16-9 0-16 7-16 16 0 9 7 16 16 16z m-58 358l116 0-58-37z m58-15c0 0-3 1-30-1l30-21 30 20z m41-57l-41 35-39-35-20 54c-1-1-2-1-2-1 0 0 0-185 61-266 61 81 61 266 61 266z m-40-159l-24 17 13 159c0 0 11 6 21 0l12-158z"/>
<glyph glyph-name="payment" unicode="&#113;" d="M509 486c0 15-13 26-29 26l-451 0c-16 0-29-11-29-26l0-43 509 0z m-322-197c-25 15-71 64-16 115l-171 0 0-160c0-14 13-26 29-26l235 0c-2 5-30 41-77 71z m268-71l25 0c16 0 29 12 29 26l0 160-328 0c55-17 220-110 274-186z m-2-17c-46 79-248 177-250 178-1 0-1 0-1 0-26 14-45 11-40-35 4-31 34-48 52-57 51-23 68-70 69-72 0-2 0-4-1-6-1-2-4-3-6-3l-185 0c0-97 266-144 268-145 1 0 3-1 4-3 32-52 71-52 80-57 52 11 64 75 69 96-38 30-56 97-59 104z"/>
<glyph glyph-name="loyality" unicode="&#114;" d="M227 281l-47 100-98-44-82-203 158-62z m-88 45c4 11 15 17 26 13 11-4 16-17 12-28-4-11-16-16-26-12-11 4-16 16-12 27z m14-106l-10 4c2 5 2 10-1 15-2 5-5 8-10 10-10 4-21-1-25-11-2-6 0-12 1-15 1-3 2-6 3-9l37-14-4-11-32 13c0-6-1-11-4-16-3-5-8-10-14-13 6-2 13-5 18-10l1-1c12-11 16-11 16-10 1 0 3 3 2 11l11 0c0-4 1-17-8-22-2 0-3-1-5-1-9 0-18 9-23 13l-1 1c-14 13-39 10-40 10l-1 11c18 3 30 8 35 17 2 4 3 9 2 14l-22 9 3 10 16-6c-3 8-3 16-1 23 6 16 23 24 39 18 7-3 13-9 16-16 4-8 4-16 1-24z m208 155c6 0 12 1 18 2 37 7 55 18 58 36 5 25-26 43-57 57-14 6-28 5-39-2-13-9-20-27-20-52l0-13-15 0c0 18-4 45-20 59-8 6-22 13-44 5-10-3-57-31-52-62 2-18 20-27 42-30l-21 0 0-29 58 0-49-201 31-32 49 233 27 0 50-233 30 32-49 201 127 0 0-86-26-193-310 0 0-29 334 0 29 219 0 118z m-3 67c1 0 2 1 3 1 3 0 5-1 7-2 25-11 35-19 38-23-8-5-30-10-55-13l0 11c0 20 5 25 7 26z m-106-4c10 3 13 0 15-1 6-5 8-20 9-34l-8 0c-34 1-45 6-48 8 3 8 24 24 32 27z"/>
<glyph glyph-name="duvet" unicode="&#115;" d="M464 376c0 0-110 27-148 65 0 0-18 36-118-24-10-6-131-46-150-68-55-62-4-110 15-116 35-11 106 17 147-9 0 0 17-9 0-18 0 0-73 12-120 4-16-3-48 0-58 31 0 0-24-4-32-36 0 0 2-41 18-43 49-3 38 36 195-9 0 0 92-15 69 64 0 0-15 75-94 64 0 0-106-12-117 9 0 0-2 19 13 14 0 0 65-13 111 7 0 0 75 12 101-82 0 0 18-85-31-94 0 0-40-8-57 0 0 0-96 43-186 13-9-3-17-20-18-42 0 0 6-4 18 0 40 14 76 3 165-33 33-14 93-21 138 4 51 27 49 41 87 91 19 26 70 58 89 84 18 25 19 86-37 124z"/>
<glyph glyph-name="bed-linen" unicode="&#116;" d="M20 174l472 0c8 0 15 5 15 10l-62 91c-5 8-13 10-21 10l-336 0c-8 0-15 0-21-10l-62-91c0-5 7-10 15-10z m477-22l-482 0c-8 0-15 5-15 12l0-50c0-6 7-11 15-11l482 0c8 0 15 5 15 11l0 50c0-7-7-12-15-12z m-448-74l-34 0c-8 0-10-6-10-14l0-52c0-8 7-12 15-12l24 0c8 0 15 4 15 12l0 52c0 8-2 14-10 14z m453 0l-34 0c-8 0-10-6-10-14l0-52c0-8 7-12 15-12l24 0c8 0 15 4 15 12l0 52c0 8-2 14-10 14z m-411 228l11 0 13 28c4 8 9 8 13 8l83 0c5 0 12 0 15-8l12-28 44 0 13 28c4 8 9 8 14 8l83 0c5 0 11 0 14-8l13-28 2 0c8 0 15 5 15 12l0 109c0 0-8 85-126 85-118 0-120-101-219-73-8 0-15-5-15-12l0-109c0-7 7-12 15-12z"/>
<glyph glyph-name="alterations-1" unicode="&#117;" d="M195 375c24-7 59-5 96 4 37 10 68 26 86 43 49 22 80 46 76 63l-5 18c7-26-66-67-163-93-97-25-181-25-188 1l5-18c4-17 41-23 93-18z m316-105l-5 18c7-26-66-68-163-93-96-25-180-25-187 1l5-18c6-26 90-27 187-1 97 25 170 67 163 93z m-296 189c-2 8 20 20 50 28 29 8 55 8 57 0l-1 6c-3 7-28 8-58 0-29-8-52-21-50-29z m51 20c-27-7-48-17-46-23 1-5 24-3 51 4 28 7 49 17 47 22-1 5-24 4-52-3z m61-218c-64-17-122-8-129 20 0 0-11-98 139-58 0 0 124 27 99 104l-5 15c7-28-39-64-104-81z m-127 44c18-16 53-25 120-8 0 0 124 27 99 104l-6 15c8-28-39-64-103-81-64-17-122-8-130 20 0 0-1-14 6-30-60 32-100 35-128 22-7 11-15 17-22 16 0 0-24-3-16-53-23-43-19-102-19-102 2 41 10 71 21 91 11-49 48-136 147-290 0 0-56 249-104 329 52 19 119-22 135-33z m-166 41c4 3 9 1 13-5-7-5-14-12-19-19-2 10 0 21 6 24z m13-44c-6-4-13 1-17 10 7 9 14 15 22 20 4-13 1-26-5-30z"/>
<glyph glyph-name="account" unicode="&#118;" d="M426 463l-30 0 0 49-15 0 0-49-121 0 0 49-14 0 0-49-118 0 0 49-15 0 0-49-26 0c-9 0-16-9-16-20l0-43 371 0 0 43c0 11-7 20-16 20z m-306-56c-15 0-27 12-27 27 0 13 9 24 20 27l0-34 15 0 0 33c11-3 20-13 20-26 0-15-13-27-28-27z m133 0c-16 0-28 12-28 27 0 13 9 24 21 27l0-34 14 0 0 33c12-3 20-13 20-26 0-15-12-27-27-27z m136 0c-15 0-27 12-27 27 0 12 8 23 19 26l0-33 15 0 0 34c12-3 21-14 21-27 0-15-13-27-28-27z m52-31l-371 0 0-356c0-11 7-20 16-20l266 0c89 0 89 90 89 111z m-40-244l-47 4c-7-13-16-26-28-36l16-45-37-18-26 40c-8-1-15-2-24-2-7 0-14 1-21 2l-25-41-37 17 15 46c-12 9-22 21-29 35l-48-6-9 40 44 17c0 0 0 0 0 1 0 15 3 30 9 44l-34 33 25 32 40-24c13 11 28 18 44 22l6 47 41 0 5-46c15-4 30-11 42-21l40 25 25-32-32-33c6-14 10-29 10-46l44-15z m-146 106c-28 0-52-23-52-52 0-29 24-52 52-52 29 0 52 23 52 52 0 29-23 52-52 52z"/>
<glyph glyph-name="knitewear-1" unicode="&#120;" d="M512 108l-67 323-123 27-132 0-123-27-67-323 69 0 34 214 19-268 268 0 19 268 34-214z m-256 63l-67 271 134 0z"/>
<glyph glyph-name="dress-1" unicode="&#121;" d="M416 11c3 2 5 3 5 3-81 118-84 232-84 232 35 44 38 85 38 102 2 0 4 0 6 0 3 0 6 0 9 1l26-74c35-11 96 80 96 80l-66 40c4 9 5 19 5 29 0 42-31 76-70 76-38 0-70-34-70-76 0-6 1-12 2-18-25-5-45-38-57-53-11 15-31 49-57 53 1 6 2 13 2 19 0 42-32 76-70 76-39 0-71-34-71-76 0-11 2-21 6-30l-66-39c0 0 61-91 96-81l26 74c3 0 6 0 9 0 2 0 4 0 6 0 0-17 3-58 38-102 0 0-3-114-84-232 0 0 2-1 5-3"/>
<glyph glyph-name="shirts-1" unicode="&#122;" d="M256 422l-73 64-7-17 46-86z m78 42l-5 22-73-64 34-39z m177-127l-95 122-76 8-46-102-38 40-36-41-51 107-72-14-96-121 68-46 58 70-1-334 254 0-2 336 58-72z m-255-271c-11 0-20 10-20 21 0 11 9 20 20 20 11 0 19-9 19-20 0-11-8-21-19-21z m0 86c-11 0-20 9-20 20 0 11 9 21 20 21 11 0 19-10 19-21 0-11-8-20-19-20z m0 85c-11 0-20 9-20 20 0 12 9 21 20 21 11 0 19-9 19-21 0-11-8-20-19-20z m0 85c-11 0-20 9-20 20 0 12 9 21 20 21 11 0 19-9 19-21 0-11-8-20-19-20z"/>
<glyph glyph-name="dining" unicode="&#65;" d="M0 343l23 0 12-270c0-3 3-6 7-6l14 0c3 0 6 3 6 6l13 270 263 0 12-276c0-3 3-5 7-5l14 0c3 0 6 2 6 5l13 276 0 47-390 1z m406 51l0-47 106 54 0 39z m-301 56l-105-44 390 0 105 44z m342-326c0-2 3-4 7-4l14 0c3 0 6 2 6 4l13 248-51-26z m-297 0c0-2 3-4 7-4l14 0c3 0 6 2 6 4l10 202-46 0z"/>
<glyph glyph-name="shop" unicode="&#66;" d="M267 301c-30 12-63-3-75-34-5-13-5-28 1-42l-30 11-7-20 44-16c1-10-1-19-5-26-10-17-32-27-68-32l3-21c0 0 51 5 78-19l1-2c10-8 28-24 45-24 3 0 7 1 10 2 17 8 16 33 16 41l-21 0c0-16-3-21-4-22-1 0-8-2-31 19l-2 2c-11 9-24 15-37 19 13 7 22 15 28 26 5 8 8 18 8 29l63-24 7 20-73 27c-1 6-3 11-5 16-3 7-5 18-1 29 7 19 29 29 48 22 9-4 16-11 21-20 4-9 4-19 0-28l20-8c6 15 5 31-1 45-6 14-18 25-33 30z m168 82l-84 0 0 40c0 49-40 89-90 89-49 0-89-40-89-89l0-40-95 0-74-383 506 0z m-244 40c0 38 32 70 70 70 39 0 70-32 70-70l0-40-140 0z m77-407l-187 70 97 231 116 50 54-114z"/>
<glyph glyph-name="shoe-repair-1" unicode="&#67;" d="M183 170c0 0 10 22 91 18 0 0 158 11 237 174 0 0-2 16-23 13 0 0-49-153-251-168 0 0-74-9-199-72 0 0 8-35 31-62l118 60z m52 48c191 16 241 160 241 160-38 37-53 14-53 14-81-73-170-43-170-43-42 14-78 11-78 11-40-97-174-97-174-97-5-67 38-115 38-115 149 73 196 70 196 70z m53 85c115 20 144 87 144 87 8 14 17 0 17 0-39-88-155-103-155-103-18 3-6 16-6 16z m167-68l-128-66c-2-1-3-4-2-6l15-28c1-3 4-4 6-3l128 66c16 8 5 26 4 27-8 16-21 11-23 10z m-334-193l1-3 204 96-9 17z"/>
<glyph glyph-name="suit-1" unicode="&#68;" d="M257 445l-84 67-8-18 52-90z m7-52l15 19-15 17-13 0-14-17 13-19c11 2 14 0 14 0z m24-130l-5 70-19 46c-8 6-14 0-14 0l-21-46-5-72 34-50z m161 56c-38 44-17 146-17 146-22-4-85 29-85 29 0 0 0-1 0-2l-5 20-85-67 40-41 50 84c-1-34-10-199-91-301-91 114-91 307-91 307 0 0-63-33-85-29 0 0 21-102-17-146 0 0 60-131 44-275l149-44 149 44c-16 144 44 275 44 275z m-193-300c-10 0-18 8-18 17 0 10 8 18 18 18 10 0 18-8 18-18 0-9-8-17-18-17z m0 57c-10 0-18 8-18 17 0 10 8 17 18 17 10 0 18-7 18-17 0-9-8-17-18-17z m0 56c-10 0-18 8-18 18 0 9 8 17 18 17 10 0 18-8 18-17 0-10-8-18-18-18z"/>
<glyph glyph-name="street" unicode="&#69;" d="M255 350l0-38-68 0 34-58-34-58 68 0 0-196 47 0 0 196 170 0 41 58-41 58-170 0 0 38 80 0-21 58 21 58-80 0 0 22c0 12-10 22-22 22l-3 0c-12 0-22-10-22-22l0-22-214 0-41-58 41-58z"/>
<glyph glyph-name="trousers-1" unicode="&#70;" d="M61 43l-5-20c50-37 127-16 127-16l3 23c-61-19-125 13-125 13z m390 0c0 0-64-32-125-13l3-23c0 0 77-21 127 16z m-6 10l-46 416c7 21 0 42 0 42-21-9-144-7-144-7 0 0-122-2-143 7 0 0-7-21 0-42l-46-416c0 0 53-30 120-12l69 293 70-293c67-18 120 12 120 12z m-158 406c0-2-2-4-5-4l-56 0c-2 0-4 2-4 4l0 27c0 2 2 4 4 4l56 0c3 0 5-2 5-4z"/>
<glyph glyph-name="towelling" unicode="&#71;" d="M433 379l60 0c0 0 0 107-104 107-61 0-176 0-269 0-92 0-82-78-82-78l0-302 312 0 0 276c0 0 2 42 39 42 36 0 44-45 44-45z m-395-321c2-25 30-32 30-32l252 0c24 1 30 25 30 25l0 39-312 0z m445 286l-94 0 0-59 94 0c0 0 29-3 29 29 0 32-29 30-29 30z m-50-180c9-37 30-28 30-28 29-3 31 36 31 36l0 87-61 0z m-433 121l26 0 0 59-26 0z"/>
<glyph glyph-name="gift" unicode="&#72;" d="M256 32l160 0 0 160-160 0z m-192 0l160 0 0 160-160 0z m192 292c16 2 33 4 44 5 42 4 79 42 84 84 5 42-26 72-67 67-33-3-63-27-77-57-14 30-44 54-77 58-41 4-72-26-67-68 5-42 43-80 84-84 11-1 28-3 44-5 0-2 0-4 0-4l32 0c0 0 0 2 0 4z m54 118c22 2 39-14 36-37-2-22-23-43-45-45-23-3-39 13-37 36 3 23 23 43 46 46z m-131-82c-22 2-43 23-45 45-3 23 14 39 36 37 23-3 43-23 46-46 2-23-14-39-37-36z m77-40l0-96 192 0 0 96z m-224-96l192 0 0 96-192 0z"/>
<glyph glyph-name="card-2" unicode="&#73;" d="M64 160l64 0 0 32-64 0z m96 0l64 0 0 32-64 0z m32 96l-128 0 0-32 128 0z m-64 32l32 0 64 64-32 0z m96-64l96 0 0 32-96 0z m256 192c-16 0-432 0-448 0-16 0-32-16-32-32 0-16 0-240 0-256 0-16 16-32 32-32 16 0 432 0 448 0 16 0 32 16 32 32 0 16 0 240 0 256 0 16-16 32-32 32z m0-128l0-144c0 0 0-16-16-16l-416 0c-16 0-16 16-16 16l0 144 32 0 64 64-96 0 0 16c0 0 0 16 16 16l416 0c16 0 16-16 16-16l0-16-192 0-64-64z"/>
<glyph glyph-name="card-1" unicode="&#74;" d="M469 461c12 0 22-4 30-13 9-8 13-18 13-30l0-324c0-12-4-22-13-30-8-9-18-13-30-13l-426 0c-12 0-22 4-30 13-9 8-13 18-13 30l0 324c0 12 4 22 13 30 8 9 18 13 30 13z m-426-34c-3 0-5-1-6-3-2-2-3-4-3-6l0-60 444 0 0 60c0 2-1 4-3 6-1 2-3 3-6 3z m426-342c3 0 5 1 6 3 2 2 3 4 3 6l0 162-444 0 0-162c0-2 1-4 3-6 1-2 3-3 6-3z m-401 34l0 35 69 0 0-35z m103 0l0 35 102 0 0-35z"/>
<glyph glyph-name="notifications" unicode="&#75;" d="M45 373l0-373 422 0 0 373z m209-336c-84 0-153 68-153 153 0 84 69 153 153 153 85 0 154-69 154-153 0-85-69-153-154-153z m205 468c-6 6-29 7-29 7l-348 0c0 0-24 1-31-6-5-6-6-26-6-26l0-84 422 0 0 80c0 0-1 22-8 29z m-316-77l-65 0 0 50 65 0z m267-2c-15 0-27 12-27 27 0 14 12 26 27 26 15 0 26-12 26-26 0-15-11-27-26-27z m-174-271l-16 134c0 20 16 37 37 37 20 0 36-17 36-37l-16-134c0 0-17 16-41 0z m59-53c0-22-17-40-39-40-22 0-39 18-39 40 0 22 17 39 39 39 22 0 39-17 39-39z"/>
<glyph glyph-name="bundles" unicode="&#119;" d="M318 309c-4 37-26 70-62 94-16 11-32 18-42 22l-78 0c-10-4-26-11-42-22-36-24-58-56-62-94-10-86-20-244-21-246l0 0c0-1 1-16 8-31 6-15 21-32 51-32l33 0c-2 4-4 8-4 13l-29 0c-44 0-45 46-45 50 0 7 10 160 20 244 4 34 23 63 56 85 23 15 45 22 49 23l50 0c4-1 26-8 49-23 33-22 52-51 56-85 2-17 4-38 6-59 3 0 6 1 9 1 1 0 3 0 4 0-2 21-4 42-6 60z m-177 134c-2 0-5 2-6 4-3 9-6 17-9 25-4 8-8 17-11 25 0 1 0 1 0 1 0 1 0 1 0 2 0 1 0 2 1 2 0 1 0 1 0 1 1 1 1 2 2 2 0 0 1 1 1 1 2 0 3 0 4 0l1 0c1 0 2-1 3-1 26-5 49-5 72 2 1 1 2 1 3 1 5 2 10 4 15 4 1 0 1 0 1 0 7 0 13-4 16-11 1-1 1-3 0-5-3-8-6-17-10-25-3-8-6-15-9-23-1-3-5-5-8-4-4 1-5 5-4 9 3 7 6 15 9 23 3 7 6 14 9 22-2 1-6 1-14-2-1 0-2-1-3-1 0 0 0 0-1 0-23-7-46-9-71-4 2-5 4-10 6-14 3-8 7-17 10-25 1-4-1-7-4-9-1 0-2 0-3 0z m74-28l-81 0c-8 0-14 6-14 14l0 12c0 8 6 14 14 14l81 0c8 0 14-6 14-14l0-12c0-8-6-14-14-14z m-81 27c-1 0-1-1-1-1l0-12c0-1 0-1 1-1l81 0c0 0 1 0 1 1l0 12c0 0-1 1-1 1z m22-23l13 0 0-47-13 0z m17-71c0-3-3-6-6-6l-9 0c-3 0-6 3-6 6l0 22c0 3 3 5 6 5l9 0c3 0 6-2 6-5l0-22z m10 72l13 0 0-76-13 0z m17-98c0-4-2-6-5-6l-11 0c-3 0-6 2-6 6l0 24c0 3 3 5 6 5l11 0c3 0 5-2 5-5z m-74-198c-1 2 0 5 1 8-20 15-33 38-33 65 0 44 36 80 80 80 25 0 48-11 62-29 5 2 9 4 14 4-17 23-45 38-76 38-51 0-93-42-93-93 0-34 18-64 45-81 0 3 0 5 0 8z m310 37l-202 0c-18 0-33 15-33 33l0 29c0 18 15 32 33 32l202 0c18 0 32-14 32-32l0-29c0-18-14-33-32-33z m-202 81c-11 0-20-9-20-19l0-29c0-11 9-19 20-19l202 0c11 0 19 8 19 19l0 29c0 10-8 19-19 19z m188-40l-171 0c-3 0-6 3-6 6 0 4 3 7 6 7l171 0c4 0 7-3 7-7 0-3-3-6-7-6z m0 0l-171 0c-3 0-6 3-6 6 0 4 3 7 6 7l171 0c4 0 7-3 7-7 0-3-3-6-7-6z m-14-123l-255 0c-18 0-32 15-32 33l0 29c0 18 14 32 32 32l255 0c18 0 32-14 32-32l0-29c0-18-14-33-32-33z m-255 81c-10 0-19-9-19-19l0-29c0-11 9-19 19-19l255 0c10 0 19 8 19 19l0 29c0 10-9 19-19 19z m244-40l-98 0c-4 0-7 3-7 6 0 4 3 7 7 7l98 0c3 0 6-3 6-7 0-3-3-6-6-6z m-174 0l-59 0c-4 0-7 3-7 6 0 4 3 7 7 7l59 0c4 0 7-3 7-7 0-3-3-6-7-6z m245-120l-358 0c-17 0-32 14-32 32l0 29c0 18 15 33 32 33l358 0c18 0 33-15 33-33l0-29c0-18-15-32-33-32z m-358 81c-10 0-19-9-19-20l0-29c0-10 9-19 19-19l358 0c11 0 19 9 19 19l0 29c0 11-8 20-19 20z m158-41l-143 0c-4 0-7 3-7 7 0 4 3 6 7 6l143 0c4 0 7-3 7-6 0-4-3-7-7-7z m192 0l-73 0c-4 0-7 3-7 7 0 4 3 6 7 6l73 0c4 0 6-3 6-6 0-4-3-7-6-7z"/>
</font>
</defs>
</svg>
